<mxfile host="app.diagrams.net" modified="2023-07-11T03:12:46.180Z" agent="Mozilla/5.0 (Macintosh; Intel Mac OS X 10_15_7) AppleWebKit/537.36 (KHTML, like Gecko) Chrome/114.0.0.0 Safari/537.36" version="21.6.1" etag="sEaA1LRh1bmXWPpqKGx1" type="github">
  <diagram name="Page-1" id="2G2CIMWt1lPg-rkGN-Rg">
    <mxGraphModel>
      <root>
        <mxCell id="0" />
        <mxCell id="1" parent="0" />
      </root>
    </mxGraphModel>
  </diagram>
</mxfile>
